# Blender v2.78 (sub 0) OBJ File: 'Elk.blend'
# www.blender.org
g Elk
v -0.378785 1.034302 0.381253
v -0.267224 1.599280 0.262379
v 0.916134 1.516932 0.217481
v -0.723261 1.382803 0.194729
v 0.761955 1.078691 0.234891
v -0.446145 1.665195 0.000182
v 0.542942 0.879155 0.117517
v 0.812374 1.612144 0.000182
v -0.753416 1.441102 -0.006119
v -0.714421 0.972461 0.000182
v 0.715158 0.849798 0.000182
v 1.146371 1.183208 -0.001488
v -0.754334 0.974410 0.327161
v -0.740869 0.540205 0.179634
v -0.845869 0.545152 0.104734
v -0.866730 0.557748 0.201753
v -0.771676 0.119421 0.145117
v -0.780059 0.124483 0.200704
v -0.665996 0.015104 0.203419
v -0.779058 0.015104 0.130262
v -0.795899 0.015104 0.214207
v -0.659731 0.015104 0.156045
v 0.460509 1.013176 0.381253
v 0.728211 0.875750 0.261941
v 0.457877 0.877738 0.269312
v 0.615463 0.557894 0.208105
v 0.528363 0.561503 0.152892
v 0.491358 0.553134 0.232259
v 0.607771 0.101692 0.214962
v 0.562958 0.104615 0.197521
v 0.543950 0.105451 0.235236
v -0.707618 0.120416 0.183938
v 0.637920 0.017767 0.238496
v 0.548463 0.017204 0.175392
v 0.533137 0.017204 0.257180
v 0.631947 0.015144 0.187868
v 1.101790 1.667110 0.150671
v 1.239542 1.411800 0.163586
v 1.614379 1.628572 -0.040989
v 1.652492 1.579337 -0.040989
v 1.514280 1.574059 0.076264
v 1.645691 1.539805 -0.040989
v 1.139594 1.757612 -0.001488
v 1.543819 1.494437 -0.040989
v 1.076359 1.725849 -0.001488
v 1.104424 1.774704 0.097525
v 1.134837 1.782504 0.074957
v 1.054697 1.799972 0.054088
v 0.676473 2.162834 0.230577
v 0.662580 2.074231 0.244811
v 0.690704 1.981437 0.217996
v 1.098686 1.843094 0.132876
v 1.063901 1.857435 0.067413
v 1.269625 1.805820 0.085821
v 1.245507 1.846242 0.124461
v 1.222300 1.855810 0.080788
v 1.346090 1.917541 0.139133
v 0.619286 1.954203 0.232465
v 0.645310 2.018528 0.270173
v 0.636671 2.072378 0.273933
v 0.370493 2.122871 0.336668
v 0.431385 2.124355 0.373092
v 0.410303 2.130228 0.324184
v -0.378785 1.034302 -0.380889
v -0.267224 1.599280 -0.262015
v 0.916134 1.516932 -0.217117
v -0.723261 1.382803 -0.194365
v 0.761955 1.078691 -0.234527
v 0.542942 0.879155 -0.117153
v -0.754334 0.974410 -0.326797
v -0.740869 0.540205 -0.179270
v -0.845869 0.545152 -0.104370
v -0.866730 0.557748 -0.201389
v -0.771675 0.119421 -0.144753
v -0.780059 0.124483 -0.200340
v -0.665996 0.015104 -0.203055
v -0.779058 0.015104 -0.129898
v -0.795899 0.015104 -0.213843
v -0.659731 0.015104 -0.155681
v 0.460509 1.013176 -0.380889
v 0.728211 0.875750 -0.261577
v 0.457877 0.877738 -0.268948
v 0.615463 0.557894 -0.207741
v 0.528363 0.561503 -0.152528
v 0.491358 0.553134 -0.231895
v 0.607771 0.101692 -0.214599
v 0.562958 0.104615 -0.197157
v 0.543950 0.105451 -0.234872
v -0.707618 0.120416 -0.183574
v 0.637920 0.017767 -0.238132
v 0.548463 0.017204 -0.175028
v 0.533137 0.017204 -0.256816
v 0.631947 0.015144 -0.187504
v 1.101790 1.667110 -0.153647
v 1.239542 1.411800 -0.166563
v 1.087003 1.774704 -0.095780
v 1.134837 1.782504 -0.074593
v 1.054697 1.799972 -0.053725
v 1.098686 1.843094 -0.132512
v 1.063901 1.857435 -0.067050
v 1.269625 1.805820 -0.085457
v 1.245507 1.846242 -0.124098
v 1.222300 1.855810 -0.080425
v 1.346090 1.917541 -0.138769
v 0.619286 1.954203 -0.232102
v 0.645310 2.018528 -0.269809
v 0.636671 2.072378 -0.273569
v 0.370493 2.122871 -0.336305
v 0.431385 2.124355 -0.372728
v 0.410303 2.130228 -0.323821
v 0.318265 2.259862 -0.336074
v 0.681307 2.068294 -0.270313
v 0.720797 1.969030 -0.274265
v 0.690704 1.981437 -0.217633
v 0.662580 2.074231 -0.244448
v 0.676473 2.162834 -0.230214
v 1.228485 1.760382 -0.074752
v 1.614855 1.628572 0.041355
v 1.652492 1.579337 0.041355
v 1.228485 1.760382 0.075117
v 1.645691 1.539805 0.041355
v 1.543819 1.494437 0.041355
v 1.514280 1.574059 -0.079240
v 1.089074 1.696480 0.074591
v 1.089074 1.696480 -0.077568
v 0.318265 2.259862 0.336437
v 0.681307 2.068294 0.270677
v 0.720797 1.969030 0.274629
vt 0.4585 0.5402
vt 0.4474 0.4813
vt 0.5101 0.4669
vt 0.5079 0.5261
vt 0.1356 0.0836
vt 0.1995 0.2214
vt 0.1487 0.1936
vt 0.3381 0.2298
vt 0.3335 0.0848
vt 0.4008 0.1415
vt 0.6833 0.6769
vt 0.6131 0.5220
vt 0.7097 0.4669
vt 0.7131 0.7058
vt 0.2293 0.7529
vt 0.1674 0.7119
vt 0.2060 0.7158
vt 0.6462 0.7104
vt 0.6998 0.7725
vt 0.1425 0.5346
vt 0.1356 0.7281
vt 0.0835 0.7044
vt 0.0781 0.5013
vt 0.5075 0.6422
vt 0.4257 0.6421
vt 0.3970 0.2478
vt 0.4008 0.3449
vt 0.3791 0.3460
vt 0.4803 0.7499
vt 0.4559 0.7470
vt 0.1088 0.8668
vt 0.0125 0.8668
vt 0.0829 0.7530
vt 0.1012 0.7571
vt 0.4718 0.8549
vt 0.4579 0.8538
vt 0.2400 0.9375
vt 0.2438 0.9171
vt 0.2555 0.9165
vt 0.2608 0.9375
vt 0.4756 0.8809
vt 0.4545 0.8811
vt 0.6131 0.6615
vt 0.1864 0.6346
vt 0.2067 0.6348
vt 0.3392 0.5483
vt 0.3750 0.5013
vt 0.3749 0.5525
vt 0.1936 0.2490
vt 0.1490 0.2448
vt 0.2114 0.5237
vt 0.2209 0.5250
vt 0.3613 0.6293
vt 0.3450 0.6275
vt 0.1780 0.3256
vt 0.1572 0.3213
vt 0.2089 0.5013
vt 0.2293 0.5038
vt 0.3702 0.7407
vt 0.3622 0.7400
vt 0.1565 0.4338
vt 0.1455 0.4327
vt 0.9874 0.0386
vt 0.9756 0.0386
vt 0.9825 0.0125
vt 0.3522 0.4737
vt 0.3616 0.4478
vt 0.3740 0.4488
vt 0.3738 0.4763
vt 0.9198 0.4940
vt 0.9081 0.4915
vt 0.9033 0.4669
vt 0.9237 0.4695
vt 0.9045 0.5941
vt 0.9237 0.6004
vt 0.9601 0.9604
vt 0.9435 0.9467
vt 0.9601 0.9401
vt 0.1562 0.4565
vt 0.1386 0.4538
vt 0.9874 0.0861
vt 0.9756 0.0679
vt 0.9874 0.0635
vt 0.3609 0.7604
vt 0.3750 0.7599
vt 0.9460 0.9591
vt 0.3750 0.7854
vt 0.3480 0.8443
vt 0.2908 0.8031
vt 0.8659 0.4375
vt 0.9036 0.3946
vt 0.9036 0.4383
vt 0.0782 0.1014
vt 0.1079 0.0409
vt 0.2908 0.8854
vt 0.9201 0.3118
vt 0.8999 0.3382
vt 0.8829 0.3277
vt 0.8659 0.3172
vt 0.0279 0.0704
vt 0.0358 0.0532
vt 0.0125 0.0578
vt 0.0125 0.0480
vt 0.0201 0.0367
vt 0.4735 0.9061
vt 0.4914 0.9266
vt 0.4799 0.9282
vt 0.4935 0.9063
vt 0.8498 0.8467
vt 0.8701 0.8622
vt 0.8416 0.8588
vt 0.9439 0.2651
vt 0.9514 0.2869
vt 0.9399 0.2868
vt 0.9266 0.2651
vt 0.4935 0.9457
vt 0.8267 0.8255
vt 0.8398 0.8221
vt 0.8276 0.8402
vt 0.8477 0.7107
vt 0.8370 0.7617
vt 0.8256 0.7543
vt 0.9007 0.6885
vt 0.9139 0.6851
vt 0.9164 0.7392
vt 0.1412 0.8173
vt 0.1412 0.8567
vt 0.1337 0.8227
vt 0.1233 0.9552
vt 0.1164 0.9411
vt 0.1233 0.8917
vt 0.8429 0.7060
vt 0.9524 0.3371
vt 0.9558 0.3618
vt 0.9451 0.3390
vt 0.1337 0.7723
vt 0.1416 0.7530
vt 0.1397 0.7721
vt 0.9209 0.6292
vt 0.9209 0.6516
vt 0.9092 0.6489
vt 0.9033 0.6253
vt 0.1107 0.8933
vt 0.1083 0.9559
vt 0.9835 0.1110
vt 0.9835 0.1381
vt 0.9756 0.1164
vt 0.8979 0.7469
vt 0.9764 0.2518
vt 0.9777 0.2328
vt 0.9871 0.2518
vt 0.9558 0.3118
vt 0.9451 0.3258
vt 0.8701 0.6851
vt 0.9364 0.1872
vt 0.9514 0.1872
vt 0.2037 0.9467
vt 0.2151 0.9165
vt 0.2151 0.9512
vt 0.9486 0.4889
vt 0.9615 0.4669
vt 0.9562 0.4887
vt 0.6707 0.9290
vt 0.6757 0.9509
vt 0.6641 0.9281
vt 0.8950 0.8224
vt 0.9164 0.8286
vt 0.9487 0.5022
vt 0.9615 0.5120
vt 0.6757 0.9056
vt 0.6614 0.9035
vt 0.5551 0.5402
vt 0.5777 0.4813
vt 0.4771 0.1397
vt 0.5828 0.1697
vt 0.5906 0.2244
vt 0.5838 0.3625
vt 0.5079 0.4105
vt 0.4525 0.3353
vt 0.7410 0.6767
vt 0.8006 0.5213
vt 0.3143 0.5013
vt 0.2907 0.5379
vt 0.2542 0.5408
vt 0.8659 0.0701
vt 0.9098 0.0125
vt 0.9098 0.1219
vt 0.8773 0.1334
vt 0.0125 0.5346
vt 0.0278 0.7281
vt 0.5882 0.6421
vt 0.6005 0.4233
vt 0.7141 0.4207
vt 0.7084 0.4420
vt 0.5561 0.7470
vt 0.5323 0.7499
vt 0.1674 0.8916
vt 0.1750 0.7819
vt 0.1933 0.7778
vt 0.2637 0.8916
vt 0.5576 0.8538
vt 0.5439 0.8549
vt 0.7244 0.9450
vt 0.7035 0.9450
vt 0.7093 0.9240
vt 0.7210 0.9245
vt 0.5609 0.8811
vt 0.5402 0.8809
vt 0.8006 0.6609
vt 0.2917 0.6187
vt 0.2722 0.6184
vt 0.9016 0.2050
vt 0.8659 0.2094
vt 0.8670 0.1583
vt 0.6308 0.1779
vt 0.6294 0.2227
vt 0.3064 0.7285
vt 0.2973 0.7295
vt 0.9016 0.2847
vt 0.8880 0.2869
vt 0.7108 0.1978
vt 0.7105 0.2191
vt 0.3143 0.7498
vt 0.2943 0.7519
vt 0.9347 0.1453
vt 0.9399 0.0352
vt 0.9477 0.0350
vt 0.9506 0.1464
vt 0.8217 0.2035
vt 0.8196 0.2146
vt 0.9677 0.4207
vt 0.9726 0.3946
vt 0.9795 0.4207
vt 0.8410 0.4139
vt 0.8402 0.4357
vt 0.8142 0.4316
vt 0.8162 0.4192
vt 0.7697 0.8245
vt 0.7656 0.7986
vt 0.7860 0.7974
vt 0.7815 0.8252
vt 0.7857 0.9280
vt 0.7662 0.9280
vt 0.7823 0.9529
vt 0.7823 0.9732
vt 0.7656 0.9663
vt 0.8410 0.2000
vt 0.8400 0.2179
vt 0.2518 0.9625
vt 0.2518 0.9850
vt 0.2400 0.9806
vt 0.9365 0.0129
vt 0.9506 0.0125
vt 0.7681 0.9542
vt 0.3750 0.9024
vt 0.0439 0.9516
vt 0.0125 0.9191
vt 0.0439 0.8917
vt 0.4441 0.1058
vt 0.5060 0.0858
vt 0.6786 0.8786
vt 0.6294 0.8440
vt 0.6294 0.8237
vt 0.6786 0.7974
vt 0.9201 0.3697
vt 0.4929 0.0312
vt 0.4714 0.0364
vt 0.4820 0.0139
vt 0.4724 0.0125
vt 0.4603 0.0183
vt 0.8731 0.3422
vt 0.5239 0.9236
vt 0.5362 0.9253
vt 0.5184 0.9450
vt 0.5388 0.9451
vt 0.8444 0.9352
vt 0.8573 0.9254
vt 0.8573 0.9535
vt 0.8578 0.6309
vt 0.8325 0.5790
vt 0.8433 0.5721
vt 0.8256 0.4972
vt 0.8294 0.4834
vt 0.8391 0.5029
vt 0.8404 0.9429
vt 0.8256 0.9316
vt 0.8458 0.4669
vt 0.8523 0.4799
vt 0.8387 0.9110
vt 0.8513 0.9134
vt 0.9127 0.8759
vt 0.8950 0.8760
vt 0.9067 0.8535
vt 0.9185 0.8535
vt 0.8784 0.4697
vt 0.8327 0.8871
vt 0.9761 0.8000
vt 0.9856 0.7938
vt 0.9856 0.8170
vt 0.5388 0.9061
vt 0.9572 0.8545
vt 0.9587 0.9152
vt 0.9511 0.9014
vt 0.5638 0.9482
vt 0.5759 0.9061
vt 0.5759 0.9539
vt 0.9486 0.5463
vt 0.9604 0.5369
vt 0.9556 0.5600
vt 0.9486 0.5596
vt 0.9413 0.7946
vt 0.9512 0.7938
vt 0.9512 0.8273
vt 0.0834 0.8917
vt 0.0834 0.9574
vt 0.0688 0.9494
vt 0.9445 0.8535
vt 0.8537 0.6357
vt 0.8784 0.6602
vt 0.1674 0.9211
vt 0.1788 0.9165
vt 0.1788 0.9512
vt 0.9185 0.9530
vt 0.9032 0.9530
vt 0.9413 0.6873
vt 0.9600 0.6851
vt 0.9600 0.7689
vt 0.9438 0.7586
vt 0.9435 0.9152
vt 0.9377 0.4164
vt 0.9312 0.4174
vt 0.9428 0.3946
vt 0.9428 0.4399
vt 0.9285 0.4419
vt 0.9593 0.6521
vt 0.9486 0.6391
vt 0.9488 0.6257
vt 0.9561 0.6276
vt 0.9604 0.5819
vt 0.9593 0.6068
vt 0.4257 0.9443
vt 0.4257 0.9061
vt 0.4486 0.9159
vt 0.4486 0.9361
vt 0.3732 0.9447
vt 0.3831 0.9273
vt 0.3831 0.9592
vt 0.7035 0.8279
vt 0.7036 0.8114
vt 0.7211 0.8141
vt 0.0881 0.0125
vt 0.4257 0.0817
vt 0.7407 0.8279
vt 0.7312 0.8991
vt 0.7107 0.8990
vt 0.6253 0.9670
vt 0.6253 0.9875
vt 0.6131 0.9875
vt 0.6131 0.9670
vt 0.6131 0.8420
vt 0.6131 0.8217
vt 0.3350 0.9451
vt 0.3483 0.9273
vt 0.3483 0.9548
vt 0.2908 0.9434
vt 0.3100 0.9273
vt 0.3100 0.9492
vt 0.1416 0.7923
vt 0.7407 0.8114
vt 0.7355 0.7974
vt 0.7088 0.7974
vt 0.9875 0.2079
vt 0.9764 0.2014
vt 0.9875 0.1872
vt 0.4257 0.9745
vt 0.4388 0.9692
vt 0.4388 0.9824
vt 0.6365 0.9124
vt 0.6365 0.9328
vt 0.6131 0.9421
vt 0.6131 0.9035
vn -0.4832 0.7661 0.4237
vn 0.4552 -0.1251 0.8815
vn -0.2560 0.2472 0.9346
vn -0.0917 -0.9738 0.2082
vn -0.8062 0.3861 -0.4482
vn 0.4561 -0.6809 0.5731
vn 0.0583 0.9562 0.2869
vn -0.9889 -0.0806 0.1251
vn -0.9920 0.0361 -0.1213
vn -0.1844 0.3158 0.9307
vn -0.0331 -0.3224 0.9460
vn -0.9495 0.2779 -0.1456
vn 0.7029 -0.3090 -0.6407
vn -0.9683 -0.1888 -0.1637
vn 0.0000 -1.0000 -0.0000
vn -0.9777 0.1074 -0.1806
vn -0.0225 -0.8941 0.4473
vn -0.8836 -0.0248 -0.4676
vn 0.5997 -0.2029 -0.7741
vn 0.2776 -0.2617 0.9244
vn -0.8940 -0.1090 -0.4347
vn 0.5870 -0.0942 -0.8041
vn 0.0798 -0.1493 0.9856
vn -0.9517 0.1374 -0.2744
vn 0.4808 -0.0352 -0.8761
vn 0.2299 0.0220 0.9730
vn 0.9153 0.3841 0.1210
vn 0.1363 0.1664 0.9766
vn 0.3207 0.2484 -0.9141
vn 0.1956 0.0312 0.9802
vn 0.5584 0.0271 -0.8291
vn 0.0338 0.2387 0.9705
vn 0.0056 -1.0000 0.0010
vn 0.2215 0.2722 0.9364
vn 0.9443 0.3036 -0.1271
vn 0.2284 0.2768 -0.9334
vn -0.0329 -0.9979 0.0556
vn 0.5242 -0.6286 0.5746
vn -0.4138 0.7446 0.5238
vn 0.1765 0.0388 0.9835
vn 0.9260 -0.3774 0.0000
vn -0.3667 0.8457 -0.3877
vn 0.4161 -0.2312 0.8794
vn 0.1549 -0.3479 0.9246
vn 0.2345 0.1792 0.9555
vn 0.2105 0.1624 0.9640
vn -0.6896 -0.5525 0.4681
vn -0.9690 0.1282 0.2114
vn 0.3261 0.2160 -0.9203
vn -0.0084 0.9759 0.2183
vn -0.7107 -0.3692 0.5989
vn 0.2834 0.1733 -0.9432
vn -0.2618 0.1830 -0.9476
vn -0.3046 -0.7837 0.5412
vn -0.5006 -0.1894 0.8447
vn 0.5217 0.8176 0.2437
vn -0.3165 0.1149 -0.9416
vn 0.1026 0.3929 0.9139
vn 0.6161 -0.3203 0.7196
vn 0.0567 -0.6720 0.7384
vn 0.3433 0.8804 -0.3272
vn 0.4151 0.9071 -0.0700
vn 0.0839 -0.0209 -0.9963
vn 0.2886 -0.5660 0.7722
vn -0.1677 -0.7314 0.6610
vn -0.5592 0.6964 0.4497
vn -0.0110 -0.0022 0.9999
vn -0.2792 -0.1081 -0.9541
vn 0.3271 0.9444 0.0331
vn 0.7743 0.5748 -0.2648
vn -0.7474 0.0105 -0.6643
vn 0.7663 -0.2173 -0.6047
vn -0.2859 0.2597 -0.9224
vn -0.0901 -0.8516 0.5164
vn -0.7627 -0.0569 -0.6443
vn 0.8393 0.3454 -0.4199
vn -0.4766 0.7655 -0.4323
vn 0.4552 -0.1251 -0.8815
vn -0.2560 0.2472 -0.9346
vn -0.0917 -0.9738 -0.2082
vn -0.8062 0.3861 0.4482
vn 0.4535 -0.6816 -0.5743
vn 0.0583 0.9562 -0.2869
vn -0.9877 -0.0840 -0.1322
vn -0.9920 0.0361 0.1213
vn -0.1844 0.3158 -0.9307
vn -0.0331 -0.3224 -0.9460
vn -0.9495 0.2779 0.1456
vn 0.7029 -0.3090 0.6407
vn -0.9683 -0.1888 0.1637
vn -0.9777 0.1074 0.1806
vn -0.0225 -0.8941 -0.4473
vn -0.8836 -0.0248 0.4676
vn 0.5997 -0.2029 0.7741
vn 0.2776 -0.2617 -0.9244
vn -0.8940 -0.1090 0.4347
vn 0.5870 -0.0942 0.8041
vn 0.0798 -0.1493 -0.9856
vn -0.9517 0.1374 0.2744
vn 0.4808 -0.0352 0.8761
vn 0.2299 0.0220 -0.9730
vn 0.9153 0.3841 -0.1210
vn 0.1363 0.1664 -0.9766
vn 0.3207 0.2484 0.9141
vn 0.1956 0.0312 -0.9802
vn 0.5584 0.0271 0.8291
vn 0.0338 0.2387 -0.9705
vn 0.0056 -1.0000 -0.0010
vn 0.2215 0.2722 -0.9364
vn 0.9443 0.3036 0.1271
vn 0.2284 0.2768 0.9334
vn -0.0329 -0.9979 -0.0556
vn 0.5209 -0.6290 -0.5771
vn -0.4196 0.7406 -0.5249
vn 0.1667 0.0391 -0.9852
vn 0.2187 0.2071 0.9536
vn 0.2621 -0.9650 0.0000
vn -0.3626 0.8475 0.3877
vn 0.4276 -0.2576 -0.8665
vn 0.1674 -0.3758 -0.9115
vn 0.2545 0.1970 -0.9468
vn 0.2257 0.2469 -0.9424
vn 0.2105 0.1624 -0.9640
vn -0.3776 0.8409 -0.3877
vn -0.8121 -0.4756 -0.3381
vn -0.9881 -0.0593 -0.1422
vn 0.0057 0.0315 -0.9995
vn -0.2618 0.1830 0.9476
vn 0.2834 0.1733 0.9432
vn 0.4191 -0.4841 -0.7681
vn 0.0839 -0.0209 0.9963
vn 0.0567 -0.6720 -0.7384
vn -0.0084 0.9759 -0.2183
vn 0.3261 0.2160 0.9203
vn 0.2886 -0.5660 -0.7722
vn -0.5592 0.6964 -0.4497
vn -0.8257 -0.1509 -0.5436
vn 0.3433 0.8804 0.3272
vn -0.3046 -0.7837 -0.5412
vn -0.7627 -0.0569 0.6443
vn -0.5006 -0.1894 -0.8447
vn -0.1677 -0.7314 -0.6610
vn 0.4151 0.9071 0.0700
vn -0.2792 -0.1081 0.9541
vn 0.7743 0.5748 0.2648
vn 0.3271 0.9444 -0.0331
vn -0.2859 0.2597 0.9224
vn -0.0901 -0.8516 -0.5164
vn -0.3165 0.1149 0.9416
vn 0.5217 0.8176 -0.2437
vn 0.7663 -0.2173 0.6047
vn 0.8393 0.3454 0.4199
vn -0.0110 -0.0022 -0.9999
vn -0.7474 0.0105 0.6643
vn 0.1026 0.3929 -0.9139
vn 0.0382 -0.9993 0.0000
vn -0.3853 0.8374 0.3877
vn 0.2197 0.9278 0.3016
vn 0.2193 0.4168 0.8822
vn 0.2244 0.4334 -0.8728
vn -0.0311 0.9995 0.0000
vn 0.3231 0.9464 -0.0007
vn 0.7926 0.6097 -0.0023
vn 0.4068 -0.9135 0.0000
vn -0.0024 -0.0030 1.0000
vn -0.8640 0.4605 -0.2037
vn 0.6156 -0.3305 0.7154
vn 0.2739 0.9194 -0.2823
vn 0.4236 -0.1948 -0.8847
vn 0.2760 0.9152 0.2937
vn -0.2543 0.5063 0.8240
vn -0.2650 0.5277 -0.8071
vn 0.2205 0.9314 -0.2896
vn 0.2522 0.9677 0.0000
s off
f 4/1/1 2/2/1 6/3/1 9/4/1
f 3/5/2 23/6/2 5/7/2
f 1/8/3 2/9/3 4/10/3
f 7/11/4 1/12/4 10/13/4 11/14/4
f 23/15/5 7/16/5 25/17/5
f 5/18/6 7/11/6 11/14/6 12/19/6
f 2/20/7 3/21/7 8/22/7 6/23/7
f 4/1/8 9/4/8 10/24/8
f 4/1/9 10/24/9 13/25/9
f 1/8/10 4/10/10 13/26/10
f 1/8/11 13/26/11 16/27/11 14/28/11
f 13/25/12 10/24/12 15/29/12 16/30/12
f 10/31/13 1/32/13 14/33/13 15/34/13
f 16/30/14 15/29/14 17/35/14 18/36/14
f 20/37/15 22/38/15 19/39/15 21/40/15
f 18/36/16 17/35/16 20/41/16 21/42/16
f 1/12/17 7/11/17 23/43/17
f 25/17/18 7/16/18 27/44/18 28/45/18
f 7/46/19 5/47/19 24/48/19
f 5/7/20 23/6/20 25/49/20 24/50/20
f 28/45/21 27/44/21 30/51/21 31/52/21
f 7/46/22 24/48/22 26/53/22 27/54/22
f 24/50/23 25/49/23 28/55/23 26/56/23
f 31/52/24 30/51/24 34/57/24 35/58/24
f 27/54/25 26/53/25 29/59/25 30/60/25
f 26/56/26 28/55/26 31/61/26 29/62/26
f 19/63/27 22/64/27 32/65/27
f 19/66/28 32/67/28 18/68/28 21/69/28
f 17/70/29 32/71/29 22/72/29 20/73/29
f 14/28/30 16/27/30 18/68/30 32/67/30
f 14/74/31 32/71/31 17/70/31 15/75/31
f 2/9/32 1/8/32 23/6/32 3/5/32
f 34/76/33 33/77/33 35/78/33
f 29/62/34 31/61/34 35/79/34 33/80/34
f 29/81/35 33/82/35 36/83/35
f 34/84/36 30/60/36 29/59/36 36/85/36
f 33/77/37 34/76/37 36/86/37
f 5/87/38 12/88/38 38/89/38
f 8/90/39 3/91/39 37/92/39
f 3/5/40 5/7/40 38/93/40 37/94/40
f 38/89/41 12/88/41 95/95/41
f 8/96/42 45/97/42 125/98/42 94/99/42
f 122/100/43 41/101/43 38/93/43
f 121/102/44 41/101/44 122/100/44
f 119/103/45 118/104/45 41/101/45
f 37/94/46 38/93/46 41/101/46
f 45/105/47 46/106/47 48/107/47
f 45/105/48 124/108/48 46/106/48
f 56/109/49 57/110/49 54/111/49
f 52/112/50 55/113/50 56/114/50 53/115/50
f 46/106/51 52/116/51 48/107/51
f 48/117/52 53/118/52 47/119/52
f 63/120/53 51/121/53 58/122/53
f 62/123/54 61/124/54 58/125/54
f 62/126/55 126/127/55 61/128/55
f 128/129/56 59/130/56 62/131/56
f 61/132/57 63/120/57 58/122/57
f 127/133/58 49/134/58 60/135/58
f 47/136/59 52/137/59 46/138/59
f 47/139/60 54/140/60 55/141/60 52/142/60
f 63/143/61 59/130/61 51/144/61
f 59/130/62 63/143/62 62/131/62
f 53/118/63 56/109/63 54/111/63 47/119/63
f 54/145/64 57/146/64 55/147/64
f 62/123/65 58/125/65 128/148/65
f 55/149/66 57/150/66 56/151/66
f 128/152/67 127/133/67 60/135/67 59/153/67
f 61/132/68 126/154/68 63/120/68
f 53/115/69 51/155/69 128/156/69 52/112/69
f 63/157/70 126/158/70 62/159/70
f 60/160/71 49/161/71 50/162/71
f 50/163/72 49/164/72 127/165/72
f 48/117/73 58/122/73 51/121/73 53/118/73
f 52/166/74 128/148/74 58/125/74 48/167/74
f 59/168/75 60/160/75 50/162/75 51/169/75
f 51/170/76 50/163/76 127/165/76 128/171/76
f 67/172/77 9/4/77 6/3/77 65/173/77
f 66/174/78 68/175/78 80/176/78
f 64/177/79 67/178/79 65/179/79
f 69/180/80 11/14/80 10/13/80 64/181/80
f 80/182/81 82/183/81 69/184/81
f 68/185/82 12/186/82 11/187/82 69/188/82
f 65/189/83 6/23/83 8/22/83 66/190/83
f 67/172/84 10/24/84 9/4/84
f 67/172/85 70/191/85 10/24/85
f 64/177/86 70/192/86 67/178/86
f 64/177/87 71/193/87 73/194/87 70/192/87
f 70/191/88 73/195/88 72/196/88 10/24/88
f 10/197/89 72/198/89 71/199/89 64/200/89
f 73/195/90 75/201/90 74/202/90 72/196/90
f 77/203/15 78/204/15 76/205/15 79/206/15
f 75/201/91 78/207/91 77/208/91 74/202/91
f 64/181/92 80/209/92 69/180/92
f 82/183/93 85/210/93 84/211/93 69/184/93
f 69/212/94 81/213/94 68/214/94
f 68/175/95 81/215/95 82/216/95 80/176/95
f 85/210/96 88/217/96 87/218/96 84/211/96
f 69/212/97 84/219/97 83/220/97 81/213/97
f 81/215/98 83/221/98 85/222/98 82/216/98
f 88/217/99 92/223/99 91/224/99 87/218/99
f 84/225/100 87/226/100 86/227/100 83/228/100
f 83/221/101 86/229/101 88/230/101 85/222/101
f 76/231/102 89/232/102 79/233/102
f 76/234/103 78/235/103 75/236/103 89/237/103
f 74/238/104 77/239/104 79/240/104 89/241/104
f 71/193/105 89/237/105 75/236/105 73/194/105
f 71/242/106 72/243/106 74/238/106 89/241/106
f 65/179/107 66/174/107 80/176/107 64/177/107
f 91/244/108 92/245/108 90/246/108
f 86/229/109 90/247/109 92/248/109 88/230/109
f 86/249/110 93/250/110 90/251/110
f 91/252/111 93/253/111 86/227/111 87/226/111
f 90/246/112 93/254/112 91/244/112
f 68/255/113 95/95/113 12/88/113
f 8/256/114 94/257/114 66/258/114
f 66/174/115 94/259/115 95/260/115 68/175/115
f 41/101/116 118/104/116 37/94/116
f 95/261/117 44/262/117 122/263/117 38/264/117
f 37/265/118 45/97/118 8/96/118
f 44/266/119 95/260/119 123/267/119
f 42/268/120 44/266/120 123/267/120
f 40/269/121 123/267/121 39/270/121
f 94/259/122 39/270/122 123/267/122
f 94/259/123 123/267/123 95/260/123
f 94/99/124 125/98/124 117/271/124
f 98/272/125 96/273/125 45/274/125
f 45/274/126 96/273/126 125/275/126
f 97/276/127 117/277/127 125/278/127
f 110/279/128 105/280/128 114/281/128
f 98/282/129 97/283/129 100/284/129
f 97/276/130 96/285/130 99/286/130
f 100/284/131 97/283/131 101/287/131 103/288/131
f 97/276/132 99/286/132 102/289/132 101/290/132
f 99/291/133 100/292/133 103/293/133 102/294/133
f 103/288/134 101/287/134 104/295/134
f 101/290/135 102/289/135 104/296/135
f 102/297/136 103/298/136 104/299/136
f 96/273/137 98/272/137 99/300/137
f 110/301/138 114/302/138 106/303/138
f 109/304/139 105/305/139 108/306/139
f 106/307/140 114/308/140 115/309/140 107/310/140
f 109/311/141 108/312/141 111/313/141
f 109/314/142 113/315/142 105/316/142
f 106/303/143 109/317/143 110/301/143
f 108/318/144 110/279/144 111/319/144
f 110/320/145 109/321/145 111/322/145
f 100/292/146 99/291/146 113/323/146 114/324/146
f 98/282/147 100/284/147 114/281/147 105/280/147
f 99/325/148 98/326/148 105/327/148 113/328/148
f 108/318/149 105/280/149 110/279/149
f 113/329/150 109/317/150 106/303/150
f 115/330/151 112/331/151 116/332/151
f 114/333/152 113/334/152 112/331/152 115/330/152
f 113/335/153 106/336/153 107/337/153 112/338/153
f 107/310/154 115/309/154 116/339/154
f 112/338/155 107/337/155 116/340/155
f 41/341/156 123/342/156 40/343/156 119/344/156
f 124/345/157 37/346/157 120/347/157
f 117/348/158 97/349/158 43/350/158
f 118/104/159 120/351/159 37/94/159
f 39/270/160 94/259/160 117/352/160
f 120/353/161 117/348/161 43/350/161
f 118/354/162 39/355/162 117/348/162 120/353/162
f 119/356/163 40/357/163 39/358/163 118/359/163
f 122/263/164 44/262/164 42/360/164 121/361/164
f 47/362/165 124/363/165 120/364/165
f 43/365/166 124/366/166 47/367/166
f 47/136/167 46/138/167 124/368/167
f 47/369/168 43/350/168 48/370/168
f 96/285/169 97/276/169 125/278/169
f 97/349/170 98/371/170 43/350/170
f 45/372/171 43/373/171 98/374/171
f 48/375/172 43/376/172 45/377/172
f 47/369/173 120/353/173 43/350/173
f 121/378/174 42/379/174 123/380/174 41/381/174
l 4 6
l 6 67
