# Blender v2.78 (sub 0) OBJ File: 'Musket.blend'
# www.blender.org
g MusketHammer
v -0.026158 0.001927 0.045482
v -0.014948 -0.016922 0.045482
v -0.026158 0.001927 0.025481
v -0.014948 -0.016922 0.025481
v -0.044824 -0.005255 0.045482
v -0.037642 -0.023921 0.045482
v -0.044824 -0.005255 0.025481
v -0.037642 -0.023921 0.025481
v -0.023858 0.014819 0.025481
v -0.010717 -0.008170 0.045482
v -0.023858 0.014819 0.045482
v -0.010717 -0.008170 0.025481
v -0.017426 0.012557 0.045482
v -0.017426 0.012557 0.025481
v -0.002057 0.039812 0.025481
v -0.002057 0.039812 0.045482
v 0.004375 0.037550 0.045481
v 0.004375 0.037550 0.025481
v -0.003974 0.026724 0.025481
v -0.003974 0.026724 0.045482
v -0.013425 0.014050 0.025481
v -0.013425 0.014050 0.045482
v 0.008359 0.011319 0.025481
v 0.008359 0.011319 0.045482
v -0.002643 0.001518 0.025481
v -0.002643 0.001518 0.045482
v 0.005609 0.008869 0.025481
v 0.005609 0.008869 0.045482
v 0.000107 0.003968 0.025481
v 0.000107 0.003968 0.045482
v 0.008224 0.000394 0.045482
v 0.008224 0.000394 0.025481
v 0.007481 0.004551 0.045482
v 0.004181 0.001611 0.045482
v 0.007756 0.004796 0.025481
v 0.003906 0.001366 0.025481
vt 0.4875 0.2689
vt 0.4875 0.3566
vt 0.4449 0.3566
vt 0.4449 0.2689
vt 0.6794 0.4443
vt 0.5846 0.4605
vt 0.5917 0.3566
vt 0.6794 0.3566
vt 0.5917 0.2689
vt 0.6794 0.2689
vt 0.5846 0.1650
vt 0.6794 0.1812
vt 0.7671 0.3566
vt 0.7671 0.2689
vt 0.6138 0.1339
vt 0.7092 0.1287
vt 0.7286 0.1514
vt 0.7090 0.1100
vt 0.7460 0.0513
vt 0.7771 0.0001
vt 0.7965 0.0228
vt 0.6138 0.4916
vt 0.8246 0.2689
vt 0.8246 0.3566
vt 0.7286 0.4740
vt 0.7092 0.4968
vt 0.3493 0.3566
vt 0.3493 0.2689
vt 0.9700 0.2689
vt 0.9999 0.2689
vt 0.9999 0.3566
vt 0.9700 0.3566
vt 0.7965 0.6026
vt 0.7771 0.6254
vt 0.7460 0.5742
vt 0.7090 0.5155
vt 0.3306 0.3566
vt 0.3306 0.2689
vt 0.0609 0.2674
vt 0.0600 0.3552
vt 0.0001 0.3545
vt 0.0010 0.2668
vt 0.2581 0.3566
vt 0.2581 0.2689
vt 0.2213 0.2689
vt 0.2218 0.3566
vt 0.2023 0.3565
vt 0.2028 0.2688
vt 0.6635 0.6004
vt 0.6396 0.5403
vt 0.6407 0.5399
vt 0.6407 0.5399
vt 0.1475 0.2683
vt 0.1466 0.3560
vt 0.6407 0.0856
vt 0.6513 0.0550
vt 0.6518 0.0552
vt 0.6635 0.0251
vt 0.1627 0.3562
vt 0.1636 0.2685
vt 0.1843 0.2687
vt 0.1829 0.3564
vt 0.6515 0.0547
vt 0.6518 0.0549
vt 0.2420 0.3566
vt 0.2420 0.2689
vt 0.6403 0.5393
vt 0.6395 0.5396
vt 0.6397 0.5390
vt 0.6518 0.0545
vn 0.9003 -0.4353 0.0000
vn -0.0000 0.0000 -1.0000
vn -0.9333 -0.3591 0.0000
vn 0.0000 0.0000 1.0000
vn -0.3591 0.9333 0.0000
vn 0.2947 -0.9556 0.0000
vn -0.9845 0.1756 0.0000
vn 0.9514 0.3079 0.0000
vn 0.3317 0.9434 0.0000
vn -0.7536 0.6573 0.0000
vn 0.3496 -0.9369 0.0000
vn 0.7919 -0.6107 0.0000
vn -0.7581 -0.6522 0.0000
vn -0.2532 -0.9674 0.0077
vn 0.7807 0.6250 0.0000
vn 0.9018 0.4321 0.0088
vn 0.9901 0.1401 0.0077
vn 0.6652 -0.7467 0.0000
vn -0.5331 -0.8460 0.0088
s off
f 2/1/1 4/2/1 12/3/1 10/4/1
f 3/5/2 4/6/2 8/7/2 7/8/2
f 7/8/3 8/7/3 6/9/3 5/10/3
f 5/10/4 6/9/4 2/11/4 1/12/4
f 3/13/5 7/8/5 5/10/5 1/14/5
f 8/7/6 4/2/6 2/1/6 6/9/6
f 1/12/4 10/15/4 13/16/4 11/17/4
f 13/16/4 22/18/4 20/19/4 17/20/4 16/21/4 11/17/4
f 4/6/2 3/5/2 12/22/2
f 1/12/4 2/11/4 10/15/4
f 3/13/7 1/14/7 11/23/7 9/24/7
f 12/22/2 3/5/2 9/25/2 14/26/2
f 10/4/8 12/3/8 14/27/8 13/28/8
f 16/29/9 17/30/9 18/31/9 15/32/9
f 11/23/10 16/29/10 15/32/10 9/24/10
f 14/26/2 9/25/2 15/33/2 18/34/2 19/35/2 21/36/2
f 13/28/11 14/27/11 21/37/11 22/38/11
f 20/39/12 19/40/12 18/41/12 17/42/12
f 22/38/13 21/37/13 25/43/13 26/44/13
f 34/45/14 36/46/14 32/47/14 31/48/14
f 21/36/2 19/35/2 23/49/2 27/50/2 29/51/2 25/52/2
f 19/40/15 20/39/15 24/53/15 23/54/15
f 20/19/4 22/18/4 26/55/4 30/56/4 28/57/4 24/58/4
f 27/59/16 28/60/16 33/61/16 35/62/16
f 35/62/17 33/61/17 31/48/17 32/47/17
f 28/57/4 30/56/4 34/63/4 33/64/4
f 29/65/18 30/66/18 26/44/18 25/43/18
f 30/66/19 29/65/19 36/46/19 34/45/19
f 36/67/2 35/68/2 32/69/2
f 29/51/2 27/50/2 35/68/2 36/67/2
f 33/64/4 34/63/4 31/70/4
f 23/54/18 24/53/18 28/60/18 27/59/18
g MusketBody
v -0.694768 -0.320868 0.016317
v -0.728894 -0.133488 0.030480
v -0.694769 -0.320868 -0.016295
v -0.728894 -0.133488 -0.030456
v -0.162228 -0.096157 0.016313
v -0.237684 -0.056055 0.030476
v -0.162228 -0.096157 -0.016298
v -0.237685 -0.056055 -0.030460
v -0.001550 -0.063708 0.014979
v -0.001550 -0.063708 -0.014966
v -0.051766 0.013576 -0.017726
v -0.051765 0.013576 0.017740
v -0.002356 0.018201 -0.017727
v -0.002356 0.018201 0.017740
v -0.002003 -0.001350 -0.025694
v -0.002003 -0.001350 0.025707
v 0.447584 -0.060110 0.014975
v 0.447584 -0.060110 -0.014970
v -0.001777 -0.031734 -0.024028
v 0.482058 -0.042617 0.010907
v 0.482058 -0.042617 -0.010902
v 1.249184 -0.038078 0.010901
v 1.249184 -0.038078 -0.010908
v 1.265296 -0.000401 0.025697
v 1.265296 -0.000401 -0.025704
v 0.477344 -0.031734 -0.024032
v -0.716049 -0.114511 0.020533
v -0.716049 -0.114511 -0.020509
v -0.265306 -0.052035 0.020529
v -0.265307 -0.052035 -0.020513
v -0.711832 -0.227178 -0.030457
v -0.711831 -0.227178 0.030480
v 1.256203 -0.031734 -0.024038
v 1.257240 -0.028975 0.024031
v 0.477344 -0.031264 0.024037
v -0.001776 -0.032529 0.024041
v -0.199956 -0.076106 0.023395
v -0.199957 -0.076106 -0.023379
v 0.038851 -0.032422 0.024040
v 0.039112 -0.001319 0.025707
v -0.002100 -0.001201 0.043117
v 0.039015 -0.001170 0.043117
v 1.417398 0.000000 0.019998
v -0.001620 -0.000000 0.020003
v 1.417398 0.017321 0.009998
v -0.001620 0.017320 0.010003
v 1.417398 0.017321 -0.010002
v -0.001620 0.017321 -0.009997
v 1.417398 0.000000 -0.020002
v -0.001620 0.000000 -0.019997
v 1.417398 -0.017320 -0.010002
v -0.001620 -0.017320 -0.009997
v 1.417398 -0.017320 0.009998
v -0.001620 -0.017321 0.010003
v 1.267421 0.017321 0.009999
v 1.267421 0.017321 -0.010001
v 1.289758 0.017321 0.009999
v 1.289758 0.017321 -0.010001
v 1.269280 0.030337 0.002919
v 1.269280 0.030337 -0.002921
v 1.284179 0.027548 0.002919
v 1.284179 0.027548 -0.002921
v 1.267421 0.017321 -0.002921
v 1.289758 0.017321 -0.002921
v 1.267421 0.017321 0.002919
v 1.289758 0.017321 0.002919
v 0.007187 0.017320 -0.009997
v 0.007187 0.017320 0.010003
v -0.001620 0.028316 0.010003
v -0.001620 0.028316 -0.009997
v 0.007187 0.028316 -0.009997
v 0.007187 0.028316 0.010003
v 0.007187 0.024254 0.003140
v 0.007187 0.028316 -0.003134
v 0.007187 0.028316 0.003140
v 0.007187 0.024254 -0.003134
v -0.001620 0.028316 0.003140
v -0.001620 0.028316 -0.003134
v -0.001620 0.024254 0.003140
v -0.001620 0.024254 -0.003134
vt 0.2071 0.4079
vt 0.2927 0.0425
vt 0.2786 0.0598
vt 0.1955 0.3931
vt 0.0663 0.4173
vt 0.1353 0.4374
vt 0.1482 0.3932
vt 0.0791 0.3732
vt 0.3180 0.0218
vt 0.2775 0.4226
vt 0.0353 0.6048
vt 0.0584 0.5817
vt 0.0691 0.4585
vt 0.0454 0.4520
vt 0.3732 0.4371
vt 0.4440 0.4206
vt 0.3938 0.0209
vt 0.3679 0.0009
vt 0.0830 0.5837
vt 0.0916 0.4602
vt 0.1023 0.6100
vt 0.1165 0.4574
vt 0.1610 0.6614
vt 0.1830 0.4943
vt 0.1565 0.4904
vt 0.1303 0.6570
vt 0.1580 0.4379
vt 0.1619 0.4534
vt 0.1884 0.4572
vt 0.1964 0.4434
vt 0.6383 0.9425
vt 0.6588 0.9422
vt 0.6544 0.6354
vt 0.6339 0.6357
vt 0.6656 0.6078
vt 0.6524 0.6063
vt 0.6351 0.6060
vt 0.5497 0.9568
vt 0.5727 0.9568
vt 0.5666 0.0003
vt 0.5430 0.0073
vt 0.5471 0.5952
vt 0.6542 0.0067
vt 0.6381 0.0066
vt 0.4460 0.0319
vt 0.4848 0.0320
vt 0.4836 0.0096
vt 0.4737 0.0004
vt 0.4573 0.0003
vt 0.4473 0.0073
vt 0.5246 0.9568
vt 0.5248 0.6178
vt 0.1460 0.4522
vt 0.0121 0.6279
vt 0.0228 0.4456
vt 0.2039 0.4606
vt 0.6656 0.0012
vt 0.3433 0.0011
vt 0.3486 0.4374
vt 0.2485 0.0523
vt 0.1654 0.3856
vt 0.2442 0.0304
vt 0.1540 0.4350
vt 0.1627 0.4053
vt 0.1215 0.6364
vt 0.1393 0.4547
vt 0.2315 0.0003
vt 0.0003 0.3870
vt 0.0071 0.3634
vt 0.6216 0.6075
vt 0.6257 0.0003
vt 0.4833 0.9575
vt 0.4833 0.9885
vt 0.4964 0.9886
vt 0.4965 0.9576
vt 0.5965 0.9568
vt 0.6211 0.9568
vt 0.6208 0.6178
vt 0.5982 0.5951
vt 0.5967 0.9261
vt 0.0003 0.4782
vt 0.0003 0.6468
vt 0.5241 0.9884
vt 0.5241 0.9578
vt 0.5732 0.9257
vt 0.6006 0.0065
vt 0.5790 0.0003
vt 0.5035 0.9465
vt 0.4445 0.9885
vt 0.5034 0.9997
vt 0.3072 0.4379
vt 0.3072 0.4462
vt 0.3139 0.4462
vt 0.3139 0.4379
vt 0.7314 0.0003
vt 0.7177 0.0007
vt 0.7177 0.9711
vt 0.7345 0.9711
vt 0.7345 0.9637
vt 0.7345 0.1031
vt 0.7340 0.0878
vt 0.6745 0.9876
vt 0.6912 0.9876
vt 0.6995 0.9732
vt 0.6912 0.9587
vt 0.6745 0.9587
vt 0.6661 0.9732
vt 0.7172 0.0003
vt 0.7005 0.0003
vt 0.7001 0.1065
vt 0.7001 0.1250
vt 0.7000 0.9537
vt 0.7005 0.9608
vt 0.7167 0.9597
vt 0.6941 0.0003
vt 0.6774 0.0003
vt 0.2346 0.4510
vt 0.2271 0.4379
vt 0.2120 0.4379
vt 0.2044 0.4510
vt 0.2120 0.4640
vt 0.2271 0.4640
vt 0.7691 0.0003
vt 0.7523 0.0003
vt 0.7523 0.9628
vt 0.7691 0.9627
vt 0.7518 0.0003
vt 0.7350 0.0003
vt 0.7350 0.9628
vt 0.7518 0.9627
vt 0.2547 0.4467
vt 0.2503 0.4467
vt 0.2503 0.4581
vt 0.2547 0.4581
vt 0.7855 0.0005
vt 0.7855 0.0005
vt 0.7854 0.0003
vt 0.7696 0.0006
vt 0.7696 0.9075
vt 0.7855 0.9075
vt 0.2404 0.4577
vt 0.2435 0.4411
vt 0.2615 0.4411
vt 0.2646 0.4577
vt 0.2351 0.4567
vt 0.2382 0.4401
vt 0.2699 0.4567
vt 0.2668 0.4401
vt 0.2120 0.5603
vt 0.2120 0.5606
vt 0.2271 0.5603
vt 0.2120 0.5603
vt 0.2921 0.4514
vt 0.2921 0.4462
vt 0.2855 0.4462
vt 0.2855 0.4514
vt 0.3020 0.4462
vt 0.2921 0.4379
vt 0.2973 0.4462
vt 0.2973 0.4431
vt 0.3020 0.4431
vt 0.2855 0.4379
vt 0.2855 0.4544
vt 0.2921 0.4544
vt 0.3072 0.4514
vt 0.3138 0.4514
vt 0.3072 0.4544
vt 0.3072 0.4592
vt 0.3138 0.4592
vt 0.3138 0.4544
vt 0.2803 0.4462
vt 0.2704 0.4379
vt 0.2704 0.4462
vt 0.2755 0.4462
vt 0.2755 0.4431
vt 0.2803 0.4431
vt 0.2547 0.4680
vt 0.2503 0.4680
vt 0.2547 0.4379
vt 0.2503 0.4379
vn -0.0917 0.6171 0.7815
vn -0.9838 -0.1792 0.0000
vn 0.0191 -0.0530 0.9984
vn 0.0572 -0.2613 0.9636
vn 0.0622 -0.1542 -0.9861
vn 0.1980 -0.9802 -0.0000
vn 0.0570 -0.2577 -0.9645
vn -0.2937 0.9559 0.0000
vn 0.9998 0.0181 -0.0000
vn 0.0080 -1.0000 -0.0000
vn 0.3986 -0.6307 -0.6658
vn 0.4525 -0.8918 -0.0000
vn 0.0000 -0.0539 -0.9985
vn 0.0059 -1.0000 -0.0000
vn 0.9310 -0.3650 0.0014
vn 0.0011 -0.2881 -0.9576
vn -0.0353 0.3766 -0.9257
vn 0.0408 -0.1387 0.9895
vn -0.0352 0.3766 0.9257
vn 0.0025 -0.8362 -0.5484
vn 0.3888 -0.9213 -0.0000
vn -0.1373 0.9905 0.0000
vn -0.0932 0.9956 0.0000
vn -0.0917 0.6171 -0.7815
vn -0.8281 0.5605 0.0000
vn 0.0414 -0.1404 -0.9892
vn 0.0191 -0.0529 -0.9984
vn 0.0035 -0.7891 0.6142
vn -0.0007 1.0000 -0.0086
vn 0.3947 -0.6202 0.6779
vn 0.0015 -0.2897 0.9571
vn -0.0553 0.3205 -0.9456
vn 0.0622 -0.1542 0.9861
vn -0.1822 0.6253 -0.7588
vn -0.1822 0.6253 0.7588
vn -0.0553 0.3205 0.9456
vn 0.0009 -0.5206 0.8538
vn 0.0001 -0.0557 0.9984
vn 0.9999 -0.0087 0.0056
vn -0.0007 1.0000 0.0000
vn -1.0000 -0.0070 -0.0055
vn 0.0001 -0.0000 1.0000
vn -0.0000 0.5000 -0.8660
vn -1.0000 -0.0000 0.0000
vn 0.0000 0.5000 0.8660
vn 0.0000 -1.0000 -0.0000
vn 1.0000 0.0000 0.0000
vn 0.0000 -0.5000 0.8660
vn -0.0000 -0.5000 -0.8660
vn 0.1840 0.9829 0.0000
vn -0.0000 1.0000 0.0000
vn -0.0000 0.0000 -1.0000
vn 0.0000 -0.0000 1.0000
vn -0.0001 0.0000 -1.0000
vn -0.9900 0.1414 -0.0000
vn 0.8779 0.4788 0.0000
s off
f 38/71/20 42/72/20 65/73/20 63/74/20
f 68/75/21 38/76/21 40/77/21 67/78/21
f 73/79/22 42/72/22 38/71/22 68/80/22
f 73/81/23 41/82/23 45/83/23 72/84/23
f 39/85/24 67/86/24 74/87/24 43/88/24
f 41/82/25 43/89/25 46/90/25 45/83/25
f 43/89/26 74/91/26 55/92/26 46/90/26
f 65/93/27 48/94/27 47/95/27 66/96/27
f 51/97/28 49/98/28 50/99/28 52/100/28
f 45/101/29 46/102/29 54/103/29 53/104/29
f 54/103/30 62/105/30 57/106/30
f 53/104/31 54/103/31 57/106/31 56/107/31
f 55/108/32 51/109/32 61/110/32 69/111/32 62/112/32
f 57/106/33 59/113/33 58/114/33 56/107/33
f 61/115/34 60/116/34 70/117/34 58/118/34 59/119/34 69/120/34
f 46/121/35 55/108/35 62/112/35 54/122/35
f 47/95/36 49/98/36 51/123/36
f 42/124/37 73/81/37 72/84/37 52/125/37
f 50/99/38 48/94/38 52/126/38
f 57/106/39 62/105/39 69/127/39 59/113/39
f 41/128/40 37/129/40 39/85/40 43/88/40
f 66/130/41 64/131/41 63/74/41 65/73/41
f 48/94/42 50/99/42 49/98/42 47/95/42
f 44/132/43 40/77/43 64/131/43 66/130/43
f 40/77/44 38/76/44 63/133/44 64/134/44
f 74/91/45 44/135/45 51/136/45 55/92/45
f 67/78/46 40/77/46 44/132/46 74/137/46
f 37/138/21 68/75/21 67/78/21 39/139/21
f 71/140/47 56/107/47 58/114/47 70/141/47
f 76/142/48 52/143/48 77/144/48 78/145/48
f 56/107/49 71/140/49 53/104/49
f 72/146/50 45/147/50 53/148/50 71/149/50 75/150/50
f 47/95/51 51/136/51 44/135/51
f 37/129/52 41/128/52 73/79/52 68/80/52
f 66/96/53 47/95/53 44/135/53
f 42/124/54 48/151/54 65/152/54
f 48/151/55 42/124/55 52/125/55
f 72/153/56 75/154/56 78/145/56 77/144/56
f 76/155/57 75/150/57 71/149/57 70/156/57 60/157/57
f 75/154/58 76/158/58 78/145/58
f 52/143/59 76/142/59 60/116/59 61/115/59 51/159/59
f 52/160/60 72/153/60 77/144/60
f 104/161/61 108/162/61 105/163/61 82/164/61
f 83/165/62 85/166/62 86/167/62 84/168/62 103/169/62 92/170/62 94/171/62
f 82/172/63 84/173/63 86/174/63 88/175/63 90/176/63 80/177/63
f 79/178/64 81/179/64 93/180/64 91/181/64 104/182/64 82/183/64 80/184/64
f 87/185/65 89/186/65 90/176/65 88/175/65
f 79/187/66 89/188/66 87/189/66 85/190/66 83/191/66 81/192/66
f 89/193/67 79/194/67 80/195/67 90/196/67
f 85/197/68 87/198/68 88/199/68 86/200/68
f 97/201/69 98/202/69 96/203/69 95/204/69
f 91/205/70 101/206/70 99/207/70 92/208/70 103/209/70 104/210/70
f 99/211/71 96/203/71 98/202/71 100/212/71
f 102/213/72 97/201/72 95/204/72 101/214/72
f 92/215/70 99/211/70 100/212/70 94/216/70
f 91/217/70 93/218/70 102/213/70 101/214/70
f 100/219/70 102/220/70 93/221/70 81/192/70 83/191/70 94/222/70
f 110/223/70 107/224/70 106/225/70 114/226/70
f 111/227/66 108/162/66 104/161/66 103/228/66 107/224/66 110/229/66 112/230/66 109/231/66
f 84/232/73 106/225/73 107/224/73 103/228/73
f 114/226/72 116/233/72 112/234/72 110/223/72
f 108/162/70 111/235/70 113/236/70 105/163/70
f 109/237/70 112/238/70 116/239/70 115/240/70
f 111/235/71 109/237/71 115/240/71 113/236/71
f 114/241/63 106/225/63 84/232/63 82/242/63 105/243/63 113/244/63 115/245/63 116/246/63
f 101/247/74 95/204/74 96/203/74 99/248/74
f 98/202/75 97/201/75 102/249/75 100/250/75
