# Blender v2.78 (sub 0) OBJ File: 'Tree.blend'
# www.blender.org
g Tree.001
v 0.323669 -0.056240 -1.146643
v 0.085897 2.010335 -0.905932
v 1.516096 -0.218982 -0.736133
v 0.867728 2.010336 -0.529421
v 1.227076 -0.418208 0.593415
v 1.060824 2.010335 0.316589
v 0.519780 0.010336 0.995037
v 0.519780 2.010335 0.995037
v -0.814768 -0.508623 1.285934
v -0.347987 2.010335 0.995037
v -0.889031 0.010335 0.316590
v -0.889031 2.010335 0.316589
v -1.251405 -0.794995 -1.095747
v -0.695935 2.010335 -0.529421
v 0.000000 -1.094837 0.000000
v 0.788145 5.592038 -0.317690
v 0.236360 5.592038 -0.714791
v 0.821712 5.592038 0.361301
v 0.311784 5.592038 0.810889
v -0.520076 5.592038 0.393931
v -0.418139 5.592038 -0.530975
v 0.239197 10.111814 -0.287500
v -0.140329 10.111814 -0.560632
v 0.262285 10.111813 0.179519
v -0.088452 10.111814 0.488752
v -0.660616 10.111814 0.201963
v -0.590501 10.111814 -0.434201
v 0.030977 13.315798 -0.133592
v -0.160936 13.315800 -0.271705
v 0.042650 13.315798 0.102562
v -0.134705 13.315798 0.258929
v -0.424025 13.315798 0.113911
v -0.388572 13.315798 -0.207774
v -0.172433 15.895535 -0.022945
vt 0.0774 0.1104
vt 0.1146 0.2114
vt 0.0711 0.2225
vt 0.0139 0.1196
vt 0.4172 0.1041
vt 0.3858 0.2190
vt 0.3417 0.2094
vt 0.3511 0.0831
vt 0.2964 0.2040
vt 0.3083 0.1015
vt 0.2509 0.1996
vt 0.2474 0.0765
vt 0.2057 0.2007
vt 0.2030 0.0987
vt 0.3086 0.3935
vt 0.2733 0.3909
vt 0.1598 0.2033
vt 0.1390 0.0705
vt 0.2474 0.0765
vt 0.0774 0.1104
vt 0.4172 0.1041
vt 0.2030 0.0987
vt 0.1390 0.0705
vt 0.3428 0.3989
vt 0.3094 0.6299
vt 0.2858 0.6261
vt 0.3083 0.1015
vt 0.3511 0.0831
vt 0.2243 0.3920
vt 0.1750 0.3957
vt 0.1393 0.3995
vt 0.1044 0.4049
vt 0.1749 0.6296
vt 0.1982 0.6271
vt 0.2173 0.7866
vt 0.2055 0.7888
vt 0.2299 0.6250
vt 0.2619 0.6244
vt 0.1515 0.6337
vt 0.2337 0.7854
vt 0.2366 0.9169
vt 0.2735 0.7902
vt 0.2617 0.7877
vt 0.2499 0.7860
vt 0.1939 0.7919
vn 0.3770 0.1725 -0.9100
vn 0.9832 0.1728 0.0592
vn 0.6665 0.0714 0.7420
vn 0.1188 0.0516 0.9916
vn -0.9172 0.1192 0.3801
vn 0.7304 0.0588 0.6805
vn -0.9932 0.1107 0.0350
vn -0.2281 0.1736 -0.9580
vn -0.7887 -0.5651 -0.2421
vn 0.1203 -0.7524 -0.6476
vn 0.4915 -0.8706 -0.0236
vn -0.5942 -0.6235 0.5080
vn 0.3302 -0.7441 -0.5808
vn 0.9915 0.1207 -0.0490
vn 0.4021 -0.7098 0.5783
vn 0.0129 -0.6724 0.7401
vn -0.9824 0.0904 -0.1637
vn -0.2372 0.0934 0.9670
vn -0.3630 0.0463 -0.9306
vn 0.9879 0.0492 -0.1468
vn -0.7801 0.0669 0.6221
vn 0.5013 0.0436 -0.8642
vn -0.2694 0.0848 -0.9593
vn -0.2704 0.0103 -0.9627
vn -0.9934 -0.0355 -0.1095
vn 0.6572 0.1113 0.7454
vn -0.4480 0.0240 0.8937
vn 0.5824 0.0761 -0.8093
vn -0.9899 0.0908 -0.1091
vn 0.9965 0.0671 -0.0493
vn -0.4474 0.0576 0.8925
vn -0.9915 0.0702 -0.1093
vn 0.5824 0.0767 -0.8093
vn 0.6600 0.0632 0.7486
vn 0.5822 0.0806 -0.8090
vn 0.6586 0.0912 0.7470
vn -0.2693 0.0912 -0.9587
vn 0.9955 0.0806 -0.0492
vn -0.4462 0.0908 0.8903
s off
f 1/1/1 2/2/1 4/3/1 3/4/1
f 3/5/2 4/6/2 6/7/2 5/8/2
f 5/8/3 6/7/3 8/9/3 7/10/3
f 7/10/4 8/9/4 10/11/4 9/12/4
f 9/12/5 10/11/5 12/13/5 11/14/5
f 8/9/6 6/7/6 18/15/6 19/16/6
f 11/14/7 12/13/7 14/17/7 13/18/7
f 13/18/8 14/17/8 2/2/8 1/1/8
f 9/12/9 11/14/9 15/19/9
f 1/1/10 3/4/10 15/20/10
f 3/5/11 5/8/11 15/21/11
f 11/14/12 13/18/12 15/22/12
f 13/18/13 1/1/13 15/23/13
f 18/15/14 16/24/14 22/25/14 24/26/14
f 7/10/15 9/12/15 15/27/15
f 5/8/16 7/10/16 15/28/16
f 14/17/17 12/13/17 20/29/17 21/30/17
f 10/11/18 8/9/18 19/16/18 20/29/18
f 2/2/19 14/17/19 21/30/19 17/31/19
f 6/7/20 4/6/20 16/24/20 18/15/20
f 12/13/21 10/11/21 20/29/21
f 4/3/22 2/2/22 17/31/22 16/32/22
f 23/33/23 27/34/23 33/35/23 29/36/23
f 17/31/24 21/30/24 27/34/24 23/33/24
f 21/30/25 20/29/25 26/37/25 27/34/25
f 19/16/26 18/15/26 24/26/26 25/38/26
f 20/29/27 19/16/27 25/38/27 26/37/27
f 16/32/28 17/31/28 23/33/28 22/39/28
f 33/35/29 32/40/29 34/41/29
f 24/26/30 22/25/30 28/42/30 30/43/30
f 26/37/31 25/38/31 31/44/31 32/40/31
f 27/34/32 26/37/32 32/40/32 33/35/32
f 22/39/33 23/33/33 29/36/33 28/45/33
f 25/38/34 24/26/34 30/43/34 31/44/34
f 28/45/35 29/36/35 34/41/35
f 31/44/36 30/43/36 34/41/36
f 29/36/37 33/35/37 34/41/37
f 30/43/38 28/42/38 34/41/38
f 32/40/39 31/44/39 34/41/39
