# Blender v2.78 (sub 0) OBJ File: 'Tree.blend'
# www.blender.org
g Tree.001
v -1.429661 7.005896 -1.038548
v 1.513587 7.099187 -0.932350
v 0.208251 4.538221 -3.385324
v -0.087776 10.643803 -0.544570
v 0.056584 7.483345 -1.769097
v 0.906659 6.797483 -1.638529
v 1.371264 6.890775 1.269758
v 3.525731 4.329809 -0.485024
v 0.681321 10.435390 -0.226476
v 1.910662 7.274933 -0.321486
v 1.919996 6.866850 0.663264
v -0.939750 6.960141 1.367421
v 0.987634 4.399176 3.368964
v 0.494121 10.504757 0.555788
v 0.690739 7.344299 1.773017
v 0.255313 6.827360 1.860282
v -1.711448 6.920651 -0.331941
v -2.570894 4.359686 2.310471
v -0.320666 10.465267 0.551497
v -1.302273 7.304810 1.297655
v -1.645588 6.900868 0.468265
v -0.057637 6.994159 -2.012138
v -2.833570 4.433194 -2.135350
v -0.537942 10.538775 -0.436053
v -1.518969 7.378318 -1.182974
v -1.160450 10.136391 -0.961118
v 0.875804 10.201137 -0.783333
v 0.057878 8.423777 -2.529732
v -0.247852 12.661170 -0.571237
v -0.104452 10.467751 -1.414867
v 0.744783 10.232434 -0.736464
v 0.442155 10.297180 1.285011
v 2.235533 8.519820 0.575991
v 0.299537 12.757214 0.150441
v 1.132756 10.563794 0.345432
v 0.759527 9.893313 0.828173
v -1.283962 9.958059 0.782396
v -0.354848 8.180699 2.472267
v -0.176367 12.418093 0.498104
v -0.264929 10.224673 1.349239
v -0.715568 10.237978 0.970841
v -1.032116 10.302724 -1.048500
v -2.530909 8.525364 0.164980
v -0.556317 12.762757 -0.008690
v -1.409693 10.569338 0.054756
v 0.153623 11.999590 -0.800605
v 0.014340 12.056121 0.978610
v 1.532693 10.504272 0.250821
v -0.179633 14.204025 -0.000778
v 0.558050 12.288906 0.117820
v -1.147398 12.035874 -0.005451
v 0.364588 12.092405 -0.953556
v -1.124511 10.540557 -1.739466
v -0.306465 14.240309 -0.214290
v -0.650688 12.325191 -0.877428
v 0.432190 12.086410 0.877330
v -1.195945 12.142941 0.146453
v -1.022563 10.591092 1.821270
v -0.208492 14.290844 0.293969
v -0.568809 12.375727 0.948501
v 0.481642 13.865284 -0.239842
v -0.720775 13.914370 0.737656
v 0.645907 12.566902 1.256944
v -0.220908 15.779391 0.029361
v 0.146103 14.116497 0.564323
v -0.326472 13.865284 0.836681
v -0.378905 13.914370 -0.712048
v -1.618425 12.566902 0.063240
v -0.116516 15.779391 0.114209
v -0.764540 14.116497 0.083444
v 0.323669 -0.056240 -1.146643
v 0.085897 2.010335 -0.905932
v 1.516096 -0.218982 -0.736133
v 0.867728 2.010336 -0.529421
v 1.227076 -0.418208 0.593415
v 1.060824 2.010335 0.316589
v 0.519780 0.010336 0.995037
v 0.519780 2.010335 0.995037
v -0.814768 -0.508623 1.285934
v -0.347987 2.010335 0.995037
v -0.889031 0.010335 0.316590
v -0.889031 2.010335 0.316589
v -1.251405 -0.794995 -1.095747
v -0.695935 2.010335 -0.529421
v 1.410117 -1.364057 -0.566825
v -0.544084 -2.212991 1.218043
v -1.133050 -2.192693 -0.952102
v 0.788145 5.592038 -0.317690
v 0.236360 5.592038 -0.714791
v 0.821712 5.592038 0.361301
v 0.311784 5.592038 0.810889
v -0.520076 5.592038 0.393931
v -0.418139 5.592038 -0.530975
v 0.239197 10.111814 -0.287500
v -0.140329 10.111814 -0.560632
v 0.262285 10.111813 0.179519
v -0.088452 10.111814 0.488752
v -0.660616 10.111814 0.201963
v -0.590501 10.111814 -0.434201
v 0.030977 13.315798 -0.133592
v -0.160936 13.315800 -0.271705
v 0.042650 13.315798 0.102562
v -0.134705 13.315798 0.258929
v -0.424025 13.315798 0.113911
v -0.388572 13.315798 -0.207774
v -0.172433 15.895535 -0.022945
v -0.750526 13.862120 -0.582278
v 0.423876 13.847496 0.429791
v 0.555162 12.403779 -0.930941
v -0.170010 15.759443 -0.040966
v 0.121414 14.036262 -0.404032
vt 0.5327 0.4186
vt 0.4560 0.5731
vt 0.4560 0.3771
vt 0.6121 0.4546
vt 0.6086 0.2655
vt 0.4917 0.1865
vt 0.4149 0.3411
vt 0.4149 0.1451
vt 0.5711 0.2226
vt 0.5676 0.0335
vt 0.5406 0.6658
vt 0.6951 0.7425
vt 0.4991 0.7425
vt 0.5766 0.5864
vt 0.3876 0.5899
vt 0.7374 0.0846
vt 0.8920 0.1613
vt 0.6960 0.1613
vt 0.7735 0.0052
vt 0.5844 0.0087
vt 0.7983 0.2584
vt 0.9528 0.3351
vt 0.7568 0.3351
vt 0.8344 0.1789
vt 0.6453 0.1824
vt 0.9082 0.4650
vt 0.8550 0.5723
vt 0.8550 0.4362
vt 0.9633 0.4900
vt 0.9609 0.3588
vt 0.7949 0.7395
vt 0.7417 0.8467
vt 0.7417 0.7107
vt 0.8500 0.7645
vt 0.8476 0.6333
vt 0.7903 0.9269
vt 0.8975 0.9801
vt 0.7615 0.9801
vt 0.8153 0.8718
vt 0.6841 0.8742
vt 0.4254 0.7847
vt 0.5327 0.8379
vt 0.3966 0.8379
vt 0.4504 0.7295
vt 0.3192 0.7319
vt 0.9216 0.8071
vt 0.8751 0.9007
vt 0.8751 0.7819
vt 0.9697 0.8289
vt 0.9676 0.7143
vt 0.9450 0.1326
vt 0.8985 0.2262
vt 0.8985 0.1074
vt 0.9931 0.1544
vt 0.9910 0.0398
vt 0.4999 0.9228
vt 0.5935 0.9693
vt 0.4747 0.9693
vt 0.5217 0.8747
vt 0.4071 0.8768
vt 0.0808 0.9593
vt 0.1621 0.9997
vt 0.0590 0.9997
vt 0.0998 0.9175
vt 0.0003 0.9193
vt 0.7704 0.5727
vt 0.8517 0.6131
vt 0.7486 0.6131
vt 0.7894 0.5309
vt 0.6899 0.5327
vt 0.0774 0.1104
vt 0.1146 0.2114
vt 0.0711 0.2225
vt 0.0139 0.1196
vt 0.4172 0.1041
vt 0.3858 0.2190
vt 0.3417 0.2094
vt 0.3511 0.0831
vt 0.2964 0.2040
vt 0.3083 0.1015
vt 0.2509 0.1996
vt 0.2474 0.0765
vt 0.2057 0.2007
vt 0.2030 0.0987
vt 0.3086 0.3935
vt 0.2733 0.3909
vt 0.1598 0.2033
vt 0.1390 0.0705
vt 0.7853 0.4492
vt 0.7515 0.3539
vt 0.8348 0.3909
vt 0.6770 0.4151
vt 0.7406 0.4624
vt 0.6352 0.5307
vt 0.6352 0.2924
vt 0.4172 0.0454
vt 0.0003 0.0625
vt 0.3428 0.3989
vt 0.3094 0.6299
vt 0.2858 0.6261
vt 0.2532 0.0003
vt 0.1335 0.0104
vt 0.2243 0.3920
vt 0.1750 0.3957
vt 0.1393 0.3995
vt 0.1044 0.4049
vt 0.1749 0.6296
vt 0.1982 0.6271
vt 0.2173 0.7866
vt 0.2055 0.7888
vt 0.2299 0.6250
vt 0.2619 0.6244
vt 0.1515 0.6337
vt 0.2337 0.7854
vt 0.2366 0.9169
vt 0.2735 0.7902
vt 0.2617 0.7877
vt 0.2499 0.7860
vt 0.1939 0.7919
vt 0.6215 0.8432
vt 0.5812 0.9245
vt 0.5812 0.8214
vt 0.6633 0.8622
vt 0.6615 0.7627
vn 0.5340 0.3266 -0.7799
vn -0.4960 0.2939 -0.8170
vn -0.5043 0.3953 -0.7677
vn 0.5323 0.4282 -0.7303
vn 0.8684 0.3266 0.3732
vn 0.7058 0.2939 -0.6446
vn 0.6558 0.3953 -0.6432
vn 0.8194 0.4282 0.3811
vn -0.2999 0.3266 0.8963
vn 0.7009 0.2939 0.6499
vn 0.6954 0.3953 0.6002
vn -0.3119 0.4282 0.8482
vn -0.9320 0.3266 0.1570
vn -0.2438 0.2939 0.9242
vn -0.2025 0.3953 0.8960
vn -0.8952 0.4282 0.1238
vn -0.4000 0.3266 -0.8563
vn -0.9558 0.2939 0.0117
vn -0.9175 0.3953 0.0440
vn -0.3582 0.4282 -0.8297
vn 0.5731 0.3266 -0.7516
vn -0.4537 0.2939 -0.8413
vn -0.4645 0.3953 -0.7924
vn 0.5688 0.4282 -0.7022
vn 0.7150 0.3266 0.6182
vn 0.8676 0.2939 -0.4011
vn 0.8195 0.3953 -0.4149
vn 0.6659 0.4282 0.6109
vn -0.5233 0.3266 0.7871
vn 0.5072 0.2939 0.8102
vn 0.5148 0.3953 0.7607
vn -0.5223 0.4282 0.7375
vn -0.8673 0.3266 -0.3757
vn -0.7077 0.2939 0.6425
vn -0.6576 0.3953 0.6413
vn -0.8183 0.4282 -0.3835
vn 0.7567 0.3266 0.5663
vn 0.8372 0.2939 -0.4612
vn 0.7882 0.3953 -0.4716
vn 0.7073 0.4282 0.5625
vn 0.0040 0.3266 -0.9452
vn -0.8692 0.2939 -0.3976
vn -0.8484 0.3953 -0.3521
vn 0.0305 0.4282 -0.9032
vn -0.7882 0.3266 0.5216
vn 0.1520 0.2939 0.9437
vn 0.1783 0.3953 0.9011
vn -0.7680 0.4282 0.4762
vn 0.1115 0.3266 0.9386
vn 0.9113 0.2939 0.2884
vn 0.8850 0.3953 0.2458
vn 0.0801 0.4282 0.9001
vn -0.8153 0.3266 -0.4782
vn -0.7804 0.2939 0.5519
vn -0.7306 0.3953 0.5567
vn -0.7657 0.4282 -0.4800
vn 0.3770 0.1725 -0.9100
vn 0.9832 0.1728 0.0592
vn 0.6665 0.0714 0.7420
vn 0.1188 0.0516 0.9916
vn -0.9172 0.1192 0.3801
vn 0.7304 0.0588 0.6805
vn -0.9932 0.1107 0.0350
vn -0.2281 0.1736 -0.9580
vn -0.7947 -0.5258 0.3032
vn 0.4158 -0.2856 -0.8634
vn 0.6904 -0.4169 0.5912
vn 0.9772 -0.0604 0.2034
vn 0.3005 -0.1667 -0.9391
vn -0.2044 -0.9777 0.0491
vn 0.9915 0.1207 -0.0490
vn -0.9876 -0.1565 -0.0081
vn 0.2148 -0.0048 0.9767
vn 0.0152 -0.1009 -0.9948
vn -0.9596 -0.0529 0.2764
vn -0.9824 0.0904 -0.1637
vn -0.2372 0.0934 0.9670
vn -0.3630 0.0463 -0.9306
vn 0.9879 0.0492 -0.1468
vn -0.7801 0.0669 0.6221
vn 0.5013 0.0436 -0.8642
vn -0.2694 0.0848 -0.9593
vn -0.2704 0.0103 -0.9627
vn -0.9934 -0.0355 -0.1095
vn 0.6572 0.1113 0.7454
vn -0.4480 0.0240 0.8937
vn 0.5824 0.0761 -0.8093
vn -0.9899 0.0908 -0.1091
vn 0.9965 0.0671 -0.0493
vn -0.4474 0.0576 0.8925
vn -0.9915 0.0702 -0.1093
vn 0.5824 0.0767 -0.8093
vn 0.6600 0.0632 0.7486
vn 0.5822 0.0806 -0.8090
vn 0.6586 0.0912 0.7470
vn -0.2693 0.0912 -0.9587
vn 0.9955 0.0806 -0.0492
vn -0.4462 0.0908 0.8903
vn 0.9322 0.2185 -0.2887
vn 0.1510 0.2282 -0.9618
vn 0.1242 0.3345 -0.9342
vn 0.9103 0.3247 -0.2567
s off
f 5/1/1 4/2/1 2/3/1
f 1/4/2 4/2/2 5/1/2
f 1/4/3 5/1/3 3/5/3
f 3/5/4 5/1/4 2/3/4
f 10/6/5 9/7/5 7/8/5
f 6/9/6 9/7/6 10/6/6
f 6/9/7 10/6/7 8/10/7
f 8/10/8 10/6/8 7/8/8
f 15/11/9 14/12/9 12/13/9
f 11/14/10 14/12/10 15/11/10
f 11/14/11 15/11/11 13/15/11
f 13/15/12 15/11/12 12/13/12
f 20/16/13 19/17/13 17/18/13
f 16/19/14 19/17/14 20/16/14
f 16/19/15 20/16/15 18/20/15
f 18/20/16 20/16/16 17/18/16
f 25/21/17 24/22/17 22/23/17
f 21/24/18 24/22/18 25/21/18
f 21/24/19 25/21/19 23/25/19
f 23/25/20 25/21/20 22/23/20
f 30/26/21 29/27/21 27/28/21
f 26/29/22 29/27/22 30/26/22
f 26/29/23 30/26/23 28/30/23
f 28/30/24 30/26/24 27/28/24
f 35/31/25 34/32/25 32/33/25
f 31/34/26 34/32/26 35/31/26
f 31/34/27 35/31/27 33/35/27
f 33/35/28 35/31/28 32/33/28
f 40/36/29 39/37/29 37/38/29
f 36/39/30 39/37/30 40/36/30
f 36/39/31 40/36/31 38/40/31
f 38/40/32 40/36/32 37/38/32
f 45/41/33 44/42/33 42/43/33
f 41/44/34 44/42/34 45/41/34
f 41/44/35 45/41/35 43/45/35
f 43/45/36 45/41/36 42/43/36
f 50/46/37 49/47/37 47/48/37
f 46/49/38 49/47/38 50/46/38
f 46/49/39 50/46/39 48/50/39
f 48/50/40 50/46/40 47/48/40
f 55/51/41 54/52/41 52/53/41
f 51/54/42 54/52/42 55/51/42
f 51/54/43 55/51/43 53/55/43
f 53/55/44 55/51/44 52/53/44
f 60/56/45 59/57/45 57/58/45
f 56/59/46 59/57/46 60/56/46
f 56/59/47 60/56/47 58/60/47
f 58/60/48 60/56/48 57/58/48
f 65/61/49 64/62/49 62/63/49
f 61/64/50 64/62/50 65/61/50
f 61/64/51 65/61/51 63/65/51
f 63/65/52 65/61/52 62/63/52
f 70/66/53 69/67/53 67/68/53
f 66/69/54 69/67/54 70/66/54
f 66/69/55 70/66/55 68/70/55
f 68/70/56 70/66/56 67/68/56
f 71/71/57 72/72/57 74/73/57 73/74/57
f 73/75/58 74/76/58 76/77/58 75/78/58
f 75/78/59 76/77/59 78/79/59 77/80/59
f 77/80/60 78/79/60 80/81/60 79/82/60
f 79/82/61 80/81/61 82/83/61 81/84/61
f 78/79/62 76/77/62 90/85/62 91/86/62
f 81/84/63 82/83/63 84/87/63 83/88/63
f 83/88/64 84/87/64 72/72/64 71/71/64
f 75/89/65 71/90/65 85/91/65
f 81/92/66 77/93/66 86/94/66
f 71/90/67 81/92/67 87/95/67
f 73/75/68 75/78/68 85/96/68
f 71/71/69 73/74/69 85/97/69
f 71/90/70 75/89/70 77/93/70 81/92/70
f 90/85/71 88/98/71 94/99/71 96/100/71
f 79/82/72 81/84/72 86/101/72
f 77/80/73 79/82/73 86/101/73
f 83/88/74 71/71/74 87/102/74
f 81/84/75 83/88/75 87/102/75
f 84/87/76 82/83/76 92/103/76 93/104/76
f 80/81/77 78/79/77 91/86/77 92/103/77
f 72/72/78 84/87/78 93/104/78 89/105/78
f 76/77/79 74/76/79 88/98/79 90/85/79
f 82/83/80 80/81/80 92/103/80
f 74/73/81 72/72/81 89/105/81 88/106/81
f 95/107/82 99/108/82 105/109/82 101/110/82
f 89/105/83 93/104/83 99/108/83 95/107/83
f 93/104/84 92/103/84 98/111/84 99/108/84
f 91/86/85 90/85/85 96/100/85 97/112/85
f 92/103/86 91/86/86 97/112/86 98/111/86
f 88/106/87 89/105/87 95/107/87 94/113/87
f 105/109/88 104/114/88 106/115/88
f 96/100/89 94/99/89 100/116/89 102/117/89
f 98/111/90 97/112/90 103/118/90 104/114/90
f 99/108/91 98/111/91 104/114/91 105/109/91
f 94/113/92 95/107/92 101/110/92 100/119/92
f 97/112/93 96/100/93 102/117/93 103/118/93
f 100/119/94 101/110/94 106/115/94
f 103/118/95 102/117/95 106/115/95
f 101/110/96 105/109/96 106/115/96
f 102/117/97 100/116/97 106/115/97
f 104/114/98 103/118/98 106/115/98
f 111/120/99 110/121/99 108/122/99
f 107/123/100 110/121/100 111/120/100
f 107/123/101 111/120/101 109/124/101
f 109/124/102 111/120/102 108/122/102
